<?xml version="1.0" encoding="utf-8"?>
<!-- Svg Vector Icons : http://www.onlinewebfonts.com/icon -->
<!DOCTYPE svg PUBLIC "-//W3C//DTD SVG 1.1//EN" "http://www.w3.org/Graphics/SVG/1.1/DTD/svg11.dtd">
<svg version="1.1" xmlns="http://www.w3.org/2000/svg" xmlns:xlink="http://www.w3.org/1999/xlink" x="0px" y="0px" viewBox="0 0 1000 1000" enable-background="new 0 0 1000 1000" xml:space="preserve">
<metadata> Svg Vector Icons : http://www.onlinewebfonts.com/icon </metadata>
<g><path d="M362.8,415.7c53.4,0,101.8,21.3,137.2,55.9c35.4-34.6,83.8-55.9,137.2-55.9c91.1,0,167.7,62.1,189.7,146.2h80.6V242.1l-0.4,0C898.2,111.7,721.5,4.8,500,4.8c-203,0-368.3,89.7-401.4,205.1c-3.9,10-6.1,20.9-6.1,32.2v319.8h80.6C195.1,477.8,271.7,415.7,362.8,415.7z M637.2,454.8c-59,0-110.4,32.6-137.2,80.7c-26.7-48.1-78.2-80.7-137.2-80.7c-69.3,0-128.1,44.9-148.8,107.1h572C765.3,499.7,706.5,454.8,637.2,454.8z M928.1,613.5H71.9c-43.3,0-61.9,32.9-61.9,76.1v305.6h82.5c0-28.5,23.1-51.6,51.6-51.6h722.1c28.5,0,51.6,23.1,51.6,51.6H990V689.6C990,646.4,971.4,613.5,928.1,613.5z"/></g>
</svg>