<?xml version="1.0" encoding="utf-8"?>
<!-- Svg Vector Icons : http://www.onlinewebfonts.com/icon -->
<!DOCTYPE svg PUBLIC "-//W3C//DTD SVG 1.1//EN" "http://www.w3.org/Graphics/SVG/1.1/DTD/svg11.dtd">
<svg version="1.1" xmlns="http://www.w3.org/2000/svg" xmlns:xlink="http://www.w3.org/1999/xlink" x="0px" y="0px" viewBox="0 0 1000 1000" enable-background="new 0 0 1000 1000" xml:space="preserve">
<metadata> Svg Vector Icons : http://www.onlinewebfonts.com/icon </metadata>
<g><g transform="translate(0.000000,511.000000) scale(0.100000,-0.100000)"><path d="M3898.3,2309.5c-224-21.1-484.3-68.9-668.1-122.5c-605-176.1-1489.4-792.6-1983.3-1384.1C856.2,335.7,285.7-613.8,146-1027.3c-55.5-164.6-59.4-264.2-19.1-423.1c59.4-222.1,204.8-411.6,390.5-507.3c210.6-107.2,710.3-164.6,1275-145.5c505.4,15.3,1288.4,97.6,1684.7,176.1c595.4,120.6,2596,794.5,5561.4,1874.2l851.9,310.1l5.7,308.2l3.8,306.3l-61.3,21.1c-112.9,36.4-4546.8,1321-4663.5,1349.7C4888,2317.2,4294.6,2349.7,3898.3,2309.5z M4771.2,2215.7c109.1-11.5,247-28.7,304.4-40.2c57.4-11.5,980.2-262.3,2048.4-557.1C9245.3,1034.5,9140,1069,9201.2,906.2c24.9-63.2,28.7-149.3,24.9-430.7l-5.7-354.2l-47.9-13.4c-26.8-5.7-606.9-178-1292.2-381c-1625.4-478.6-2611.3-729.4-3878.6-984c-675.8-135.9-1684.7-298.7-1853.2-298.7c-30.6,0-36.4,24.9-47.9,187.6c-21.1,291-105.3,415.4-333.1,490.1c-80.4,26.8-576.3,99.6-1123.8,166.6c-105.3,11.5-201,26.8-214.4,34.5c-26.8,13.4,168.5,375.2,411.6,761.9l158.9,250.8l70.8-21.1c42.1-13.4,206.8-21,396.3-21c275.7,0,361.8,7.6,564.8,51.7c304.4,63.2,520.7,134,637.5,206.8c220.2,134,1426.2,1171.6,1456.9,1252c21.1,53.6-17.2,120.6-105.3,185.7c-59.3,44-264.2,88.1-505.4,103.4l-191.4,13.4l95.7,26.8c93.8,23,426.9,74.7,574.3,88.1C4168.2,2236.8,4587.5,2232.9,4771.2,2215.7z M9431,980.9c137.8-38.3,294.8-82.3,350.3-97.6l99.6-28.7v-95.7v-95.7l-153.2,13.4l-153.1,13.4V588.4v-99.6l153.1,13.4c147.4,13.4,153.2,11.5,153.2-26.8c0-32.5-11.5-40.2-55.5-40.2c-67,0-116.8-17.2-116.8-40.2c0-9.6,40.2-11.5,88.1-3.8l86.2,11.5l-5.7-63.2c-7.6-59.3-15.3-65.1-189.5-126.3c-193.4-70.8-208.7-72.7-208.7-49.8c0,9.6,88.1,42.1,195.3,72.8c109.1,30.6,183.8,57.4,168.5,59.3c-15.3,3.8-153.2-32.5-306.3-78.5l-277.6-82.3l-9.6,375.2c-9.6,361.8-11.5,379.1-59.3,465.2c-28.7,47.9-42.1,86.1-28.7,82.3C9172.5,1051.7,9295,1019.2,9431,980.9z M9287.4,92.6c0-23-38.3-47.9-51.7-34.5c-13.4,13.4,11.5,51.7,34.5,51.7C9279.7,109.8,9287.4,102.2,9287.4,92.6z M9207,67.7c-11.5-34.5-53.6-40.2-53.6-7.6c0,17.2,13.4,30.6,30.6,30.6C9201.2,90.7,9210.8,81.1,9207,67.7z M8900.7-64.4c-13.4-9.6-84.2-36.4-158.9-63.2c-72.7-24.9-553.3-193.4-1068.2-373.3c-513.1-180-938.1-327.4-947.6-327.4c-7.7,0-9.6,40.2-7.7,90l7.7,91.9L7819-319C8682.4-62.5,8916,0.7,8919.8-20.4C8923.6-35.7,8916-54.8,8900.7-64.4z M1026.6-820.6c622.2-78.5,721.7-97.6,838.5-166.6c126.3-74.7,166.6-168.5,180-432.6c13.4-231.7-11.5-404-74.7-526.5l-38.3-74.7l-403.9,11.5c-574.3,15.3-829,65.1-1022.3,197.2c-170.4,116.8-292.9,350.3-292.9,559c0,88.1,68.9,317.8,134,444.2c32.5,65.1,45.9,74.7,91.9,67C467.6-747.8,731.8-782.3,1026.6-820.6z M4545.3-1329.8c-82.3-97.6-172.3-206.8-199.1-241.2c-44-55.5-76.6-70.8-344.6-145.5c-160.8-46-359.9-97.6-438.4-114.9c-180-38.3-807.9-118.7-1148.7-145.5c-425-32.5-404-32.5-390.5,0c24.9,51.7,82.3,275.7,82.3,319.7c1.9,34.5,17.2,42.1,122.5,53.6c461.4,49.8,1347.8,202.9,2033.1,352.3c231.6,51.7,423.1,93.8,426.9,95.7C4692.7-1155.6,4627.7-1234.1,4545.3-1329.8z"/><path d="M5046.9,1136c-478.6-111.1-1146.8-503.5-1740.2-1018.5c-183.8-158.9-201-191.4-95.7-172.3c702.6,120.6,1014.6,155.1,2113.5,231.6c532.2,36.4,1102.7,76.6,1269.3,90l300.6,23v348.4v350.3l-80.4,9.6c-350.3,47.9-1305.6,149.3-1460.7,155.1C5228.8,1158.9,5121.6,1153.2,5046.9,1136z"/><path d="M7051.3,996.2c-24.9-57.4-30.6-132.1-30.6-340.8c0-208.7,5.8-283.3,30.6-338.9c17.2-40.2,42.1-72.7,53.6-72.7c11.5,0,36.4,32.5,53.6,72.7c24.9,55.5,30.6,130.2,30.6,338.9c0,208.7-5.8,283.3-30.6,340.8c-17.2,38.3-42.1,70.8-53.6,70.8C7093.5,1067,7068.6,1034.5,7051.3,996.2z"/><path d="M7277.2,638.2c0-174.2,1.9-317.8,5.7-317.8c1.9,0,417.3,30.6,922.8,67c505.4,36.4,938.1,67,961,67c42.1,0,44,7.7,44,143.6c0,116.8-5.7,143.6-28.7,143.6c-32.5,0-1694.3,183.8-1822.5,201l-82.3,11.5V638.2z"/><path d="M8751.3,318.5c-566.7-72.7-562.8-72.7-570.5-135.9c-7.7-67-5.7-67,323.5-5.7c141.7,24.9,342.7,59.4,448,76.6c105.3,17.2,206.8,34.5,225.9,40.2c36.4,11.5,46,86.1,9.6,82.3C9174.4,374,8977.2,349.1,8751.3,318.5z"/><path d="M7832.4,203.6C6875.2,106,2898.9-389.8,2707.5-435.8c-51.7-11.5-279.5-271.9-262.3-298.6c13.4-24.9-17.2-26.8,1146.7,116.8c495.8,63.2,989.8,122.5,1100.8,134c111,11.5,394.4,53.6,631.8,95.7C7897.5,62,8027.7,84.9,8046.8,115.6c23,34.5,9.6,99.6-23,101.5C8008.5,219,7922.4,213.2,7832.4,203.6z"/><path d="M2079.6-141c-63.2-9.6-172.3-34.5-243.1-55.5c-139.8-42.1-212.5-109.1-373.3-338.9l-80.4-114.9l241.2-42.1c132.1-23,247-34.5,254.6-26.8c5.7,7.7,70.8,93.8,143.6,187.6c72.7,95.7,174.2,225.9,225.9,292.9l93.8,118.7l-74.7-1.9C2227-123.7,2142.7-131.4,2079.6-141z"/><path d="M728-363c-30.6-51.7-67-124.4-78.5-164.6c-26.8-86.1-15.3-97.6,124.4-128.3c137.8-28.7,180-24.9,220.2,28.7c51.7,65.1,124.4,252.7,113,285.3c-11.5,28.7-166.6,68.9-264.2,68.9C796.9-273.1,775.8-288.4,728-363z M1040-366.9c7.6-7.7-11.5-67-42.1-134l-57.4-120.6l-88.1,13.4c-172.3,24.9-170.4,23-101.5,160.8l61.3,120.6l107.2-13.4C978.8-347.7,1032.4-359.2,1040-366.9z"/><path d="M9268.2,598V473.6h105.3h105.3v113c0,111-1.9,112.9-59.3,124.4C9274,739.7,9268.2,735.9,9268.2,598z"/><path d="M9509.5,693.7c-17.2-45.9-13.4-168.5,5.8-197.2c21.1-36.4,40.2,15.3,40.2,107.2C9555.4,689.9,9528.6,741.6,9509.5,693.7z"/><path d="M9459.7,402.7c-157-15.3-191.4-26.8-191.4-61.2c0-32.5,7.7-32.5,149.3-9.6c202.9,34.5,233.6,44,233.6,65.1C9651.1,416.1,9599.4,418.1,9459.7,402.7z"/></g></g>
</svg>